<svg width="18" height="18" viewBox="0 0 18 18" fill="none" xmlns="http://www.w3.org/2000/svg">
<path fill-rule="evenodd" clip-rule="evenodd" d="M9 1.6875C8.03971 1.6875 7.08882 1.87664 6.20163 2.24413C5.31443 2.61162 4.50831 3.15025 3.82928 3.82928C3.15025 4.50831 2.61162 5.31443 2.24413 6.20163C1.87664 7.08882 1.6875 8.03971 1.6875 9C1.6875 9.96029 1.87664 10.9112 2.24413 11.7984C2.61162 12.6856 3.15025 13.4917 3.82928 14.1707C4.50831 14.8497 5.31443 15.3884 6.20163 15.7559C7.08882 16.1234 8.03971 16.3125 9 16.3125C9.96029 16.3125 10.9112 16.1234 11.7984 15.7559C12.6856 15.3884 13.4917 14.8497 14.1707 14.1707C14.8497 13.4917 15.3884 12.6856 15.7559 11.7984C16.1234 10.9112 16.3125 9.96029 16.3125 9C16.3125 8.03971 16.1234 7.08882 15.7559 6.20163C15.3884 5.31443 14.8497 4.50831 14.1707 3.82928C13.4917 3.15025 12.6856 2.61162 11.7984 2.24413C10.9112 1.87664 9.96029 1.6875 9 1.6875ZM12.1811 7.54221C12.4008 7.32254 12.4008 6.96639 12.1811 6.74672C11.9615 6.52705 11.6053 6.52705 11.3856 6.74672L8.07233 10.06L6.61454 8.60225C6.39487 8.38258 6.03872 8.38258 5.81905 8.60225C5.59938 8.82192 5.59938 9.17807 5.81905 9.39774L7.67458 11.2533C7.78007 11.3588 7.92314 11.418 8.07233 11.418C8.22151 11.418 8.36459 11.3588 8.47007 11.2533L12.1811 7.54221Z" fill="#10B981"/>
</svg>
