<svg xmlns="http://www.w3.org/2000/svg" width="16" height="16" viewBox="0 0 16 16" fill="none">
    <path d="M7.90818 9.83675C8.24434 9.8709 8.50649 10.155 8.50649 10.5002C8.50649 10.8453 8.24434 11.1294 7.90818 11.1636L7.83982 11.1668H7.83331C7.46512 11.1668 7.16665 10.8684 7.16665 10.5002C7.16665 10.132 7.46512 9.8335 7.83331 9.8335H7.83982L7.90818 9.83675Z" fill="black" fill-opacity="0.56"/>
    <path d="M7.83331 4.66683C8.10946 4.66683 8.33331 4.89069 8.33331 5.16683V8.50016C8.33331 8.77631 8.10946 9.00016 7.83331 9.00016C7.55717 9.00016 7.33331 8.77631 7.33331 8.50016V5.16683C7.33331 4.89069 7.55717 4.66683 7.83331 4.66683Z" fill="black" fill-opacity="0.56"/>
    <path fill-rule="evenodd" clip-rule="evenodd" d="M7.83331 1.3335C11.4232 1.3335 14.3333 4.24365 14.3333 7.8335C14.3333 11.4233 11.4232 14.3335 7.83331 14.3335C4.24346 14.3335 1.33331 11.4233 1.33331 7.8335C1.33331 4.24365 4.24346 1.3335 7.83331 1.3335ZM7.83331 2.3335C4.79575 2.3335 2.33331 4.79593 2.33331 7.8335C2.33331 10.8711 4.79575 13.3335 7.83331 13.3335C10.8709 13.3335 13.3333 10.8711 13.3333 7.8335C13.3333 4.79593 10.8709 2.3335 7.83331 2.3335Z" fill="black" fill-opacity="0.56"/>
</svg>
