<svg xmlns="http://www.w3.org/2000/svg" width="48" height="48" fill="none">
    <circle cx="24.001" cy="24" r="24" fill="#fff"/>
    <path fill="#000" d="M21.309.15A23.934 23.934 0 0 0 7.063 7.008C3.5 10.55 1.165 14.958.298 19.819c-.396 2.223-.396 6.255 0 8.479C2.05 38.075 9.927 45.95 19.707 47.703c2.223.396 6.256.396 8.48 0 4.861-.866 9.27-3.203 12.813-6.764 6.803-6.858 8.857-16.918 5.239-25.905C42.263 5.124 31.937-1.056 21.309.15Zm3.957 11.568c1.677.867 1.96 2.995.565 4.333-.452.434-.773.565-1.658.622-1.037.075-1.15.038-1.79-.509-1.489-1.319-1.338-3.353.301-4.352.716-.452 1.828-.49 2.582-.094Zm-8.103 5.294c4.353.377 9.196.377 13.982-.019 3.637-.301 3.957-.301 4.39-.019.604.396.66 1.432.114 1.979-.434.433-.697.49-4.259.847-2.28.245-2.676.34-2.959.697-.32.358-.339 1.037-.339 7.763 0 7.291 0 7.366-.414 7.8-.509.546-1.508.584-2.017.075-.414-.414-.49-.885-.772-4.258-.245-2.958-.302-3.221-.66-3.353-.603-.245-.791.357-1.017 3.297-.283 3.353-.452 4.22-.961 4.484-.584.301-1.357.207-1.828-.226l-.433-.396v-7.404c0-6.745-.02-7.424-.32-7.782-.302-.357-.717-.452-3.638-.753-2.92-.32-3.316-.396-3.618-.773-.433-.527-.433-1.47-.018-1.921.376-.415.621-.415 4.767-.038Z"/>
</svg>
