<svg xmlns="http://www.w3.org/2000/svg" width="1024" height="1024" fill="none">
    <path d="m490.813 20.75 3.483-.002c19.402.018 38.457.765 57.704 3.252l1.993.257c49.263 6.43 97.095 19.752 142.3 40.503a672.637 672.637 0 0 0 7.234 3.256C715.791 73.533 727.391 80.234 739 87l2.72 1.581C758.97 98.651 775.156 109.851 791 122l1.82 1.39c22.65 17.352 45.164 36.902 63.594 58.747 1.888 2.218 3.863 4.345 5.836 6.488 5.037 5.589 9.632 11.472 14.227 17.424a427.195 427.195 0 0 0 4.738 5.935C895 229.146 907.148 247.85 918 267l1.336 2.353c31.2 55.297 51.316 115.102 59.914 178.022l.458 3.338c2.63 20.506 3.675 40.999 3.605 61.662l-.006 3.403C983.199 555.57 978.493 594.318 969 633l-.772 3.174C961.175 664.771 951.181 692.21 939 719l-1.39 3.072c-19.184 42.085-45.026 82.165-76.274 116.346a447.346 447.346 0 0 0-5.676 6.41C840.72 861.932 824.443 877.475 807 892l-1.873 1.569C760.455 930.883 708.807 959.619 654 979l-3.386 1.202C611.062 994.046 569.692 1001.61 528 1005l-2.606.218C448.951 1011.325 369.27 997.511 299 967l-2.397-1.032A627.994 627.994 0 0 1 279 958l-2.583-1.213C253.896 946.11 232.45 933.231 212 919l-1.882-1.302C193.554 906.2 178.084 893.36 163 880l-2.096-1.84c-6.699-5.94-13.066-12.168-19.382-18.508a2129.61 2129.61 0 0 0-5.153-5.146C130.7 848.84 125.162 843.138 120 837a3591.92 3591.92 0 0 0-2.738-3.168c-6.333-7.429-12.433-15-18.262-22.832l-1.492-2.003C84.932 792.027 73.371 774.402 63 756l-1.499-2.654C48.256 729.754 37.201 705.44 28 680l-1.143-3.123C15.415 645.307 7.809 612.3 3.28 579.051c-.265-1.94-.54-3.88-.815-5.82C-2.909 533.595-2.85 489.546 3 450l.309-2.123C15.596 363.584 47.085 283.863 99 216l1.547-2.027C110.124 201.498 120.36 189.579 131 178l1.604-1.757c9.054-9.896 18.466-19.23 28.396-28.243l2.777-2.555C169.668 140.066 175.76 134.968 182 130l1.921-1.535c22.845-18.194 46.949-34.35 72.684-48.177a897.99 897.99 0 0 0 4.961-2.689c53.458-29.131 113.118-46.861 173.497-53.912.694-.08 1.389-.162 2.104-.246 17.913-2.066 35.63-2.681 53.646-2.691ZM453.91 271.5c-11.372 14.91-14.598 30.09-12.91 48.5 1.625 9.541 5.952 17.525 12 25l2.25 3.125c10.703 11.19 24.426 17.698 39.83 18.158 16.747.218 30.643-4.883 43.443-15.857 10.162-9.954 16.753-23.842 16.945-38.112l-.03-2.627-.023-2.772c-.402-16.61-7.594-29.523-19.415-40.915-11.6-9.946-25.507-15.678-40.887-15.309-16.162 1.602-30.66 8.197-41.203 20.809ZM254 375l-2.063 2.188C246.37 385.27 244.84 393.274 246 403c1.988 8.34 6.472 14.66 13.336 19.723 13.666 8.351 32.577 8.423 48.11 10.408 6.052.773 12.103 1.56 18.154 2.345l6.388.827c14.383 1.865 28.754 3.804 43.126 5.746 20.062 2.712 40.126 5.415 60.204 8.009 1.9.246 3.799.493 5.698.742 18.214 2.386 36.524 4.633 54.921 4.325l3.3-.027c2.587-.023 5.175-.055 7.763-.098v2l-3.703-.035c-14.292-.088-28.571.16-42.86.473l-2.866.059c-2.775.058-5.55.122-8.325.187l-2.451.05c-5.22.13-10.421.422-15.63.779l-2.095.142L424 459a197791.353 197791.353 0 0 0-4.7 111.035l-.1 2.367c-.53 12.576-1.064 25.15-1.6 37.726-.552 12.945-1.099 25.89-1.64 38.836-.305 7.254-.61 14.508-.923 21.76-.749 17.423-1.463 34.847-2.037 52.276l-.095 2.85a746.724 746.724 0 0 0-.339 14.333 453.397 453.397 0 0 1-.128 5.664c-.028 8.794 2.28 15.161 7.875 21.966 7.307 5.948 14.573 9.8 24.238 9.488 9.813-1.205 17.012-5.941 23.449-13.301 8.76-12.298 6.794-34.7 7.787-49.102.277-4.01.56-8.021.847-12.031.812-11.39 1.617-22.779 2.404-34.17.437-6.32.884-12.641 1.34-18.961.24-3.332.474-6.664.7-9.997.25-3.705.517-7.409.787-11.113l.213-3.315c.513-6.747 1.238-11.828 6.422-16.624 4.867-3.285 9.805-3.317 15.5-2.687 5.076 2.4 6.972 4.846 9 10 .64 3.894.885 7.798 1.135 11.734l.258 3.565c.23 3.217.449 6.435.663 9.653.228 3.385.471 6.768.714 10.152.457 6.42.902 12.84 1.341 19.262.786 11.46 1.59 22.918 2.402 34.376.328 4.652.648 9.306.965 13.96.252 22.584.252 22.584 7.522 43.298l2.125 3.125c4.656 5.311 12.013 9.497 19.027 10.184 10.103.344 17.778-1.159 25.782-7.95 7.473-7.976 8.667-16.692 8.439-27.248l-.045-4.026c-.276-20.441-1.273-40.877-2.145-61.299-.258-6.067-.507-12.134-.757-18.2-.58-14.062-1.17-28.122-1.762-42.183-.753-17.924-1.503-35.85-2.243-53.774-.296-7.175-.598-14.35-.903-21.525-.19-4.483-.376-8.966-.56-13.448-.086-2.052-.173-4.103-.262-6.154-.46-10.67-.785-21.33-.845-32.01l-.03-2.9c-.008-10.18 2.563-17.715 9.12-25.584 7.343-7.162 16.332-9.869 26.219-11.517l2.418-.415c2.637-.451 5.276-.896 7.914-1.342a10970.31 10970.31 0 0 1 20.384-3.475c15.188-2.578 30.372-5.174 45.549-7.812 2.491-.433 4.983-.862 7.476-1.29 3.716-.642 7.43-1.298 11.142-1.967 1.94-.346 3.88-.68 5.821-1.012 11.992-2.195 23.962-5.693 31.44-15.971 5.31-8.777 6.154-18.336 4.044-28.281-3.025-9.309-7.855-14.901-16.535-19.363-10.169-4.79-18.852-3.586-29.704-1.866l-3.547.546c-3.198.495-6.396.994-9.593 1.495-3.384.528-6.77 1.049-10.155 1.57-10.07 1.55-20.139 3.111-30.206 4.678-7.795 1.214-15.59 2.423-23.387 3.62-3.347.514-6.693 1.033-10.038 1.558-51.876 8.142-104.474 10.398-156.92 7.938a830.992 830.992 0 0 0-6.766-.27c-35.342-1.355-70.145-7.498-105.002-13.109-4.4-.708-8.8-1.412-13.202-2.114l-2.124-.339c-3.42-.545-6.839-1.09-10.258-1.632-6.23-.99-12.46-1.984-18.687-2.996l-6.603-1.06-2.976-.49c-14.488-2.308-25.378-.17-35.645 10.908Z" fill-rule="evenodd" clip-rule="evenodd" fill="#a7aaad"/>
</svg>
