<svg xmlns="http://www.w3.org/2000/svg" width="24" height="24" viewBox="7.5 5 25 25" fill="none">
    <rect width="24" height="24" x="8" y="5.533" fill="#FF7BE5" rx="12"/>
    <path fill="#fff" d="M20.124 13.944a1.406 1.406 0 1 0 0-2.811 1.406 1.406 0 0 0 0 2.811Z"/>
    <path fill="#fff" d="M22.187 14.335c-1.385.145-2.788.14-4.21 0l-3.133-.492a.817.817 0 0 0-.844.816c0 .442.278.758.793.817l3.56.469-.293 7.27a.747.747 0 0 0 1.493.056l.235-3.119a.376.376 0 0 1 .752 0l.235 3.12a.749.749 0 0 0 1.493-.057l-.26-6.403a.87.87 0 0 1 .84-.868l2.604-.468c.518-.093.793-.375.793-.817a.818.818 0 0 0-.844-.818l-3.218.493.004.001Z"/>
    <path fill="#FF7BE5" d="m16.795 16.28-1.49-.729c3.247.368 3.565.543 5.062.576-1.547.085-2.903.264-3.572.15v.002Z"/>
</svg>
