<svg width="12" height="13" viewBox="0 0 12 13" xmlns="http://www.w3.org/2000/svg">
<path fill-rule="evenodd" clip-rule="evenodd" d="M3.77506 2.72626C4.61549 2.24073 5.59225 2.04499 6.55487 2.1692C7.51749 2.29341 8.41257 2.73067 9.10223 3.41363C9.79189 4.09659 10.2379 4.98736 10.3715 5.94872C10.4 6.15386 10.2568 6.34326 10.0517 6.37177C9.84653 6.40028 9.65712 6.2571 9.62862 6.05196C9.51766 5.25354 9.14727 4.51375 8.5745 3.94655C8.00173 3.37934 7.25836 3.01619 6.45889 2.91303C5.65943 2.80988 4.84822 2.97244 4.15023 3.37567C3.62181 3.68095 3.18046 4.11136 2.86271 4.62534H4.00005C4.20715 4.62534 4.37505 4.79324 4.37505 5.00034C4.37505 5.20745 4.20715 5.37534 4.00005 5.37534H2.25843C2.25275 5.37547 2.24706 5.37547 2.24136 5.37534H2.00005C1.79294 5.37534 1.62505 5.20745 1.62505 5.00034V3.00034C1.62505 2.79324 1.79294 2.62534 2.00005 2.62534C2.20715 2.62534 2.37505 2.79324 2.37505 3.00034V4.00382C2.74179 3.48494 3.21828 3.04792 3.77506 2.72626Z" fill="#FFFFFF"/>
<path fill-rule="evenodd" clip-rule="evenodd" d="M1.94843 6.62891C2.15356 6.6004 2.34297 6.74359 2.37148 6.94872C2.48243 7.74714 2.85282 8.48693 3.42559 9.05414C3.99836 9.62134 4.74174 9.98449 5.5412 10.0876C6.34066 10.1908 7.15187 10.0282 7.84986 9.62501C8.37829 9.31973 8.81963 8.88933 9.13739 8.37534H8.00005C7.79294 8.37534 7.62505 8.20745 7.62505 8.00034C7.62505 7.79324 7.79294 7.62534 8.00005 7.62534H9.74166C9.74734 7.62521 9.75303 7.62521 9.75874 7.62534H10C10.2072 7.62534 10.375 7.79324 10.375 8.00034V10.0003C10.375 10.2074 10.2072 10.3753 10 10.3753C9.79294 10.3753 9.62505 10.2074 9.62505 10.0003V8.99686C9.2583 9.51574 8.78182 9.95277 8.22503 10.2744C7.3846 10.76 6.40784 10.9557 5.44522 10.8315C4.4826 10.7073 3.58752 10.27 2.89786 9.58705C2.2082 8.90409 1.76222 8.01332 1.62862 7.05196C1.60011 6.84683 1.74329 6.65742 1.94843 6.62891Z" fill="#FFFFFF"/>
</svg>
