<svg xmlns="http://www.w3.org/2000/svg" width="64" height="64" fill="none"><circle cx="32" cy="32" r="32" fill="#2563EB"/><path stroke="#fff" stroke-linecap="round" stroke-linejoin="round" stroke-width="3" d="M31.5 25.5a2.333 2.333 0 0 0 4.666 0m-4.666 0a2.333 2.333 0 0 1 4.666 0m-4.666 0h-9.334m14 0h4.667m-16.333 7a2.333 2.333 0 0 0 4.666 0m-4.666 0a2.333 2.333 0 0 1 4.666 0m-4.666 0h-2.334m7 0h11.667M35 39.5a2.333 2.333 0 0 0 4.666 0M35 39.5a2.333 2.333 0 0 1 4.666 0M35 39.5H22.166m17.5 0h1.167M9.5 32a22.5 22.5 0 1 0 45.001 0A22.5 22.5 0 0 0 9.5 32Z"/></svg>
