<svg xmlns="http://www.w3.org/2000/svg" width="64" height="64" fill="none"><circle cx="32" cy="32" r="32" fill="#2563EB"/><g clip-path="url(#a)"><path stroke="#fff" stroke-linecap="round" stroke-linejoin="round" stroke-width="3" d="M30.35 30.352a2.333 2.333 0 1 0 3.3 3.299m3.811 3.8A10.17 10.17 0 0 1 32 39c-4.2 0-7.7-2.333-10.5-7 1.484-2.473 3.164-4.291 5.04-5.453m3.337-1.337c.699-.142 1.41-.212 2.123-.21 4.2 0 7.7 2.333 10.5 7-.777 1.295-1.609 2.411-2.494 3.348M21.5 21.5l21 21M9.5 32a22.5 22.5 0 1 0 45.001 0A22.5 22.5 0 0 0 9.5 32Z"/></g><defs><clipPath id="a"><path fill="#fff" d="M8 8h48v48H8z"/></clipPath></defs></svg>
