<svg xmlns="http://www.w3.org/2000/svg" width="234" height="140" fill="none"><rect width="124" height="64" x="55" y="38" fill="#2563EB" rx="4"/><rect width="109" height="49" x="62.5" y="45.5" stroke="#fff" stroke-width="3" rx="2.5"/><path fill="#fff" d="M76.64 65.57 73.548 75h-2.492l4.226-11.375h1.586l-.226 1.945ZM79.21 75l-3.1-9.43-.25-1.945h1.6L81.71 75h-2.5Zm-.14-4.234v1.836h-6.007v-1.836h6.007Zm7.197 2.632c.276 0 .521-.052.735-.156.213-.11.38-.26.5-.453.125-.198.19-.43.195-.695h2.117a2.817 2.817 0 0 1-.476 1.586c-.313.458-.732.82-1.258 1.086-.526.26-1.115.39-1.766.39-.656 0-1.23-.11-1.719-.328a3.354 3.354 0 0 1-1.21-.906 3.973 3.973 0 0 1-.727-1.36 5.619 5.619 0 0 1-.242-1.671v-.227c0-.599.08-1.156.242-1.672.161-.52.403-.974.726-1.36.323-.39.727-.695 1.211-.913.485-.219 1.052-.328 1.703-.328.693 0 1.3.132 1.82.398.527.266.938.646 1.235 1.14.302.49.456 1.071.461 1.743h-2.117a1.763 1.763 0 0 0-.18-.766c-.11-.229-.27-.411-.484-.547-.209-.14-.466-.21-.774-.21-.328 0-.596.07-.804.21-.209.136-.37.323-.485.563a2.801 2.801 0 0 0-.242.805c-.041.296-.062.609-.062.937v.227c0 .328.02.643.062.945.042.302.12.57.235.805.12.234.283.419.492.554.208.136.479.203.812.203Zm8.494 0c.276 0 .52-.052.734-.156.214-.11.38-.26.5-.453.125-.198.19-.43.196-.695h2.117a2.817 2.817 0 0 1-.477 1.586c-.312.458-.731.82-1.258 1.086-.526.26-1.114.39-1.765.39-.656 0-1.23-.11-1.719-.328a3.355 3.355 0 0 1-1.21-.906 3.97 3.97 0 0 1-.727-1.36 5.615 5.615 0 0 1-.243-1.671v-.227c0-.599.081-1.156.243-1.672.161-.52.403-.974.726-1.36.323-.39.727-.695 1.211-.913.484-.219 1.052-.328 1.703-.328.693 0 1.3.132 1.82.398.526.266.938.646 1.235 1.14.302.49.456 1.071.46 1.743h-2.116a1.763 1.763 0 0 0-.18-.766c-.11-.229-.27-.411-.484-.547-.209-.14-.467-.21-.774-.21-.328 0-.596.07-.805.21-.208.136-.37.323-.484.563a2.798 2.798 0 0 0-.242.805 6.74 6.74 0 0 0-.063.937v.227c0 .328.021.643.063.945.041.302.12.57.234.805.12.234.284.419.492.554.209.136.48.203.813.203Zm8.892 1.758c-.656 0-1.245-.104-1.765-.312a3.884 3.884 0 0 1-1.329-.883 3.928 3.928 0 0 1-.828-1.305 4.39 4.39 0 0 1-.289-1.594v-.312c0-.64.091-1.227.274-1.758.182-.531.442-.992.781-1.383.344-.39.76-.69 1.25-.898.489-.214 1.042-.32 1.656-.32.599 0 1.13.099 1.594.296.463.198.851.48 1.164.844.318.365.557.802.719 1.313a5.54 5.54 0 0 1 .242 1.687v.938h-6.719v-1.5h4.508v-.172c0-.313-.057-.591-.172-.836a1.324 1.324 0 0 0-.5-.594c-.224-.146-.51-.219-.859-.219-.297 0-.552.066-.766.196a1.51 1.51 0 0 0-.523.547c-.131.234-.23.51-.297.828a5.228 5.228 0 0 0-.094 1.031v.313c0 .338.047.65.141.937.099.287.237.534.414.742.182.209.401.37.656.485.26.114.555.171.883.171.406 0 .784-.078 1.133-.234a2.46 2.46 0 0 0 .914-.727l1.093 1.188a3.33 3.33 0 0 1-.726.734 3.88 3.88 0 0 1-1.094.579 4.511 4.511 0 0 1-1.461.218Zm9.47-2.492a.729.729 0 0 0-.14-.437c-.094-.13-.268-.25-.524-.36-.25-.114-.612-.219-1.086-.312a8.474 8.474 0 0 1-1.195-.352 4.16 4.16 0 0 1-.953-.523 2.27 2.27 0 0 1-.625-.72 2 2 0 0 1-.227-.96c0-.354.076-.688.227-1 .156-.313.378-.588.664-.828a3.145 3.145 0 0 1 1.063-.57 4.47 4.47 0 0 1 1.421-.211c.735 0 1.365.117 1.891.351.531.235.938.557 1.219.969.286.406.429.87.429 1.39h-2.25a1.2 1.2 0 0 0-.14-.585.93.93 0 0 0-.422-.414c-.188-.105-.432-.157-.734-.157-.25 0-.467.045-.649.133a.997.997 0 0 0-.422.344.832.832 0 0 0-.14.469c0 .13.026.247.078.351.057.1.148.19.273.274.125.083.287.161.485.234.203.068.453.13.75.188.609.124 1.153.289 1.632.492.48.198.86.468 1.141.812.281.339.422.784.422 1.336 0 .375-.083.719-.25 1.031a2.488 2.488 0 0 1-.719.82c-.312.23-.687.41-1.125.54a5.256 5.256 0 0 1-1.461.187c-.786 0-1.453-.14-2-.422-.541-.28-.953-.638-1.234-1.07-.276-.437-.414-.885-.414-1.344h2.133c.01.308.088.555.234.743.151.187.341.322.57.406.235.083.487.125.758.125.292 0 .534-.04.727-.117.192-.084.338-.193.437-.329a.793.793 0 0 0 .156-.484Zm8.369 0a.735.735 0 0 0-.14-.437c-.094-.13-.269-.25-.524-.36-.25-.114-.612-.219-1.086-.312a8.474 8.474 0 0 1-1.195-.352 4.14 4.14 0 0 1-.953-.523 2.27 2.27 0 0 1-.625-.72 2 2 0 0 1-.227-.96c0-.354.076-.688.227-1 .156-.313.377-.588.664-.828a3.14 3.14 0 0 1 1.062-.57c.422-.141.896-.211 1.422-.211.735 0 1.365.117 1.891.351.531.235.937.557 1.219.969.286.406.429.87.429 1.39h-2.25c0-.218-.047-.413-.14-.585a.934.934 0 0 0-.422-.414c-.188-.105-.433-.157-.735-.157-.25 0-.466.045-.648.133a.997.997 0 0 0-.422.344.825.825 0 0 0-.141.469c0 .13.026.247.079.351.057.1.148.19.273.274.125.083.286.161.484.234.204.068.454.13.75.188.61.124 1.154.289 1.633.492.479.198.86.468 1.141.812.281.339.422.784.422 1.336 0 .375-.084.719-.25 1.031a2.5 2.5 0 0 1-.719.82c-.313.23-.688.41-1.125.54a5.256 5.256 0 0 1-1.461.187c-.786 0-1.453-.14-2-.422-.542-.28-.953-.638-1.234-1.07-.276-.437-.414-.885-.414-1.344h2.132c.011.308.089.555.235.743.151.187.341.322.57.406.234.083.487.125.758.125.292 0 .534-.04.726-.117.193-.084.339-.193.438-.329a.793.793 0 0 0 .156-.484Zm6.174-6.117V75h-2.258v-8.453h2.258Zm-2.399-2.203c0-.328.115-.6.344-.813.229-.213.536-.32.922-.32.38 0 .685.107.914.32.234.214.351.485.351.813 0 .328-.117.599-.351.812-.229.214-.534.32-.914.32-.386 0-.693-.106-.922-.32a1.063 1.063 0 0 1-.344-.812ZM129.675 63h2.25v10.063L131.698 75h-2.023V63Zm7.602 7.688v.164c0 .63-.068 1.208-.204 1.734-.13.526-.333.982-.609 1.367-.276.38-.62.677-1.031.89-.406.21-.886.313-1.438.313-.515 0-.963-.104-1.343-.312a2.728 2.728 0 0 1-.946-.883 5.016 5.016 0 0 1-.617-1.336 10.284 10.284 0 0 1-.352-1.672v-.36c.079-.603.196-1.16.352-1.671.156-.51.362-.956.617-1.336.255-.38.571-.674.946-.883.375-.208.817-.312 1.328-.312.557 0 1.041.106 1.453.32.416.208.76.505 1.031.89.276.38.479.834.609 1.36a6.83 6.83 0 0 1 .204 1.727Zm-2.25.164v-.165c0-.343-.026-.666-.079-.968a2.534 2.534 0 0 0-.25-.805 1.402 1.402 0 0 0-.492-.555c-.203-.135-.466-.203-.789-.203-.307 0-.568.052-.781.156-.214.105-.391.25-.531.438a1.986 1.986 0 0 0-.305.672 4.11 4.11 0 0 0-.125.844v1.023c.016.412.083.776.203 1.094.125.312.313.56.563.742.255.177.586.266.992.266.318 0 .581-.063.789-.188a1.26 1.26 0 0 0 .484-.531c.12-.23.203-.498.25-.805a6.84 6.84 0 0 0 .071-1.015Zm6.173-4.305V75h-2.258v-8.453h2.258Zm-2.398-2.203c0-.328.114-.6.343-.813.229-.213.537-.32.922-.32.38 0 .685.107.914.32.235.214.352.485.352.813 0 .328-.117.599-.352.812-.229.214-.534.32-.914.32-.385 0-.693-.106-.922-.32a1.062 1.062 0 0 1-.343-.812ZM145.584 63v12h-2.257V63h2.257Zm4.385 3.547V75h-2.258v-8.453h2.258Zm-2.399-2.203c0-.328.115-.6.344-.813.229-.213.537-.32.922-.32.38 0 .685.107.914.32.234.214.352.485.352.813 0 .328-.118.599-.352.812-.229.214-.534.32-.914.32-.385 0-.693-.106-.922-.32a1.063 1.063 0 0 1-.344-.812Zm8.549 2.203v1.594h-4.922v-1.594h4.922Zm-3.703-2.086h2.25v7.992c0 .245.031.432.093.563.068.13.167.221.297.273.13.047.295.07.492.07.141 0 .266-.005.375-.015.115-.016.211-.031.29-.047l.007 1.656a4.21 4.21 0 0 1-.625.149 4.64 4.64 0 0 1-.742.054c-.495 0-.927-.08-1.297-.242a1.783 1.783 0 0 1-.843-.797c-.198-.364-.297-.844-.297-1.437v-8.22Zm7.642 9.586 2.242-7.5h2.414l-3.398 9.726a5.28 5.28 0 0 1-.297.688c-.12.245-.284.477-.492.695a2.307 2.307 0 0 1-.774.547c-.307.14-.685.211-1.133.211a2.86 2.86 0 0 1-.523-.039 8.92 8.92 0 0 1-.484-.11v-1.648h.179c.063.005.123.008.18.008.297 0 .539-.034.726-.102.188-.067.339-.171.454-.312.114-.135.205-.313.273-.531l.633-1.633Zm-.938-7.5 1.836 6.125.321 2.383-1.532.164-3.039-8.672h2.414Z"/></svg>
